# xmcd CD database file
#
# Track frame offsets:
#	150
#	6117
#	12975
#	27325
#	41419
#	51622
#	58786
#	67657
#	74555
#	82187
#	91013
#	100280
#
# Disc length: 1457 seconds
#
# Revision: 0
# Processed by: cddbd v1.5.2PL0 Copyright (c) Steve Scherf et al.
# Submitted via: CDex 1.51
#
DISCID=9c05af0c
DTITLE=江原啓之 - スピリチュアル エナジー Disc2 あなたのたましいを輝かせるために
DYEAR=2006
DGENRE=New Age
TTITLE0=スピリチュアル エナジー
TTITLE1=大地の詩
TTITLE2=希望
TTITLE3=輝き
TTITLE4=La Luna 〈月〉ルナ
TTITLE5=祝福
TTITLE6=いのちのルネッサンス
TTITLE7=愛する人よ
TTITLE8=君に捧ぐ
TTITLE9=運命
TTITLE10=めぐりあい
TTITLE11=La Strada 〈道〉ストラーダ
EXTD=YEAR: 2006
EXTT0=
EXTT1=
EXTT2=
EXTT3=
EXTT4=
EXTT5=
EXTT6=
EXTT7=
EXTT8=
EXTT9=
EXTT10=
EXTT11=
PLAYORDER=
